<svg xmlns="http://www.w3.org/2000/svg" viewBox="0 0 15 15" shape-rendering="geometricPrecision" text-rendering="geometricPrecision" image-rendering="optimizeQuality" fill-rule="evenodd" clip-rule="evenodd"><defs><style>.str0{stroke:#2b2a29;stroke-width:.597644}</style></defs><g id="Слой_x0020_1"><g id="_889928928"><circle class="str0" cx="5" cy="5" r="4" fill="#e31e24"/><circle class="str0" cx="11" cy="5" r="4" fill="#009846"/><path class="str0" d="M8 2c1 0 1 1 1 3 0 1 0 2-1 3-1-1-2-2-2-3 0-2 1-3 2-3z" fill="#ef7f1a"/><path class="str0" d="M9 6c0 1-1 1-1 2-1-1-1-1-1-2h2z" fill="#393185"/><circle class="str0" cx="8" cy="10" r="4" fill="#008dd2"/><path class="str0" d="M8 6c2 0 3 1 4 3h-1C9 9 7 8 7 6h1z" fill="#66c3d0"/><path class="str0" d="M8 6h1C8 8 7 9 5 9H4c0-2 2-3 4-3z" fill="#ae4a84"/><path class="str0" d="M9 6c0 1-1 1-1 2-1-1-1-1-1-2h2z" fill="#fefefe"/></g></g></svg>