<svg width="78px" height="79px" viewBox="0 0 78 79" xmlns="http://www.w3.org/2000/svg">
    <g id="Page-1" stroke="none" stroke-width="1" fill="none" fill-rule="evenodd">
	    <path d="M37,15 C49,15 59,25 59,37 C59,41 57,46 55,49 L78,72 L72,79 L49,55 C45,57 41,59 37,59 C25,59 15,49 15,37 C15,25 25,15 37,15 Z M37,22 C45,22 52,29 52,37 C52,45 45,52 37,52 C29,52 22,45 22,37 C22,29 29,22 37,22 Z" id="Shape" fill="#59B9FD"></path>
	    <path d="M37,0 C57,0 73,16 73,37 C73,43 72,49 69,54 L64,49 C65,45 66,41 66,37 C66,20 53,7 37,7 C20,7 7,20 7,37 C7,53 20,66 37,66 C41,66 45,65 49,64 L54,69 C49,72 43,73 37,73 C16,73 0,57 0,37 C0,16 16,0 37,0 Z" id="Shape" fill="#2B2A29"></path>
    </g>
</svg>
