
<svg width="231px" height="205px" viewBox="0 0 231 205" xmlns="http://www.w3.org/2000/svg">
    <g id="Page-1" stroke="none" stroke-width="1" fill="none" fill-rule="evenodd">
        <g id="Plotter">
            <g id="Group" transform="translate(0.000000, 34.000000)">
                <path d="M0.155804893,25 L4,27 L3,30 L3,35 L6,36 C6,41.3333333 6,44 6,44 C6,44 15.0207083,44 33.062125,44 L38.0503943,48.5474258 L42,110 C47,111 52,110 56,110 C56,112 56,121 56,137 L175,137 C175,121.666667 175,112.666667 175,110 C178,110 172,111 182,111 C186,111 186,111 189,110 L189,125 L185,126 L185,137 L191,137 L191,134 L194,134 L194,137 L200,137 L200,126 L195,125 L195,46 L189,46 C189,47.3333333 189,48.6666667 189,50 C189,52 189,54 189,55 C184,54 180,55 175,55 L175,45 C207.666667,45 224,45 224,45 C224,45 224,42 224,36 L228,36 L228,27 L230.158136,25 L224.512478,-1.42108547e-14 L180,-1.45820374e-14 C180,2 179.666667,3.33333333 179,4 C179,1 177,2 173,2 L68,2 C64,2 54,1 51,3 C51,1 51,1 50,-5.68434189e-14 C50,-5.68434189e-14 8.36063369,-5.68434189e-14 6.36063369,-5.68434189e-14 C2.22408116,9.74904412 0.155804893,14.6235662 0.155804893,14.6235662 C0.155804893,14.6235662 0.155804893,18.0823775 0.155804893,25 Z" id="Shape" fill="#B5B3B2"></path>
                <path d="M223,44 L223,37 L176,37 C175.333333,37 174.666667,36.6666667 174,36 L174,31 L181,31 L181,34 C181,34 196.333333,34 227,34 L227,27 C224.333333,27 209,27 181,27 L181,28 L174,28 L174,27 L57,27 L57,136 C59.6666667,136 98.6666667,136 174,136 C174,109.333333 174,94 174,90 C174,75 174,58 174,43 C177,43 174,44 180,44 C181.333333,44 195.666667,44 223,44 Z" id="Shape" fill="#494544"></path>
                <path d="M59,31 L59,120 C59,124 59,127 59,131 C59,136 60,134 71,135 L172,135 C173,104 172,68 172,36 C172,29 175,30 157,30 L65,30 C63,30 61,30 59,31 Z" id="Shape" fill="#EAEAEA"></path>
                <path d="M128,64 L128,65 C130,68 129,66 132,67 C135,69 134,74 130,72 C129,72 128,71 128,70 C128,72 128,71 129,72 C130,73 130,73 130,74 C130,74 130,75 129,75 C129,75 131,74 129,75 C129,75 129,75 129,75 C126,78 125,75 123,73 C122,72 120,73 120,70 L120,68 L122,68 L122,70 L124,70 L124,65 C124,65 122,64 122,64 C119,62 114,63 112,66 C111,66 111,67 110,68 L108,70 C107,71 107,72 106,72 C105,73 105,73 104,75 C104,78 103,76 103,82 C103,86 105,90 108,92 C109,94 109,94 113,97 C114,97 118,98 119,98 C126,99 132,96 137,91 C140,88 139,89 140,87 C146,78 144,67 143,67 C143,68 143,70 143,72 C143,72 143,73 143,73 C142,76 140,79 139,81 L135,86 C135,86 135,86 135,86 L129,90 C128,90 129,90 128,90 C125,91 121,92 118,91 C118,91 119,91 117,90 C115,90 117,91 114,89 C110,87 107,84 108,78 C108,77 108,76 110,75 C110,74 110,74 111,73 C113,72 117,73 119,73 L120,74 C122,74 122,73 124,75 C125,76 125,77 125,79 C124,79 122,80 122,80 C120,80 122,79 121,80 C120,81 121,81 119,83 C119,83 118,84 117,83 C115,82 114,80 114,78 C115,76 118,77 119,78 L119,76 C118,74 114,75 113,76 C112,77 112,78 112,79 C113,80 113,80 113,81 L115,86 C118,91 125,89 129,87 L135,80 C135,80 135,80 135,80 C136,79 136,79 136,78 L137,77 C139,73 139,65 137,61 L136,58 C135,55 133,52 131,49 L125,43 C124,42 123,42 122,41 L118,39 C115,37 112,36 109,35 C107,35 102,35 100,35 C97,35 95,36 93,37 L90,39 C89,40 88,40 88,42 L90,43 C90,43 91,44 92,44 C103,49 103,46 108,46 C108,48 108,47 106,48 C103,50 102,52 97,50 C96,50 95,49 94,49 L89,46 C89,46 89,46 89,46 C89,46 89,46 88,46 C86,44 85,43 84,46 C80,51 79,56 80,62 C80,63 80,64 80,65 C80,67 83,73 85,75 C90,81 89,80 93,84 C94,85 94,86 95,87 L98,91 C99,92 99,92 100,95 C100,96 101,97 102,99 C103,102 102,107 102,110 C103,110 103,110 104,109 C105,108 105,108 107,107 L108,106 C109,105 107,106 109,106 C110,105 111,105 112,104 C115,104 120,106 122,103 L125,101 C123,99 118,100 116,99 L111,97 C108,96 106,94 103,91 C103,91 103,91 103,91 L101,88 C101,87 100,84 100,82 C99,78 100,74 102,71 L103,69 C105,66 108,64 111,61 C111,61 111,61 111,60 L112,59 C114,57 114,55 114,52 C118,52 117,56 117,60 C121,60 124,59 126,62 C127,63 128,63 128,64 Z" id="Shape" fill="#2A2625"></path>
                <path d="M62,82 L62,110 C69,111 70,111 73,107 L74,105 C75,103 76,99 74,98 C73,97 72,97 70,97 L70,101 L68,101 C66,98 68,94 74,95 C76,95 77,97 78,97 C80,100 79,106 75,109 C74,110 74,110 73,111 C69,113 68,113 63,114 L63,123 C63,125 63,125 63,127 C66,127 68,127 70,128 L72,130 C74,131 81,130 83,130 C85,130 85,130 86,129 C87,129 87,129 87,128 L91,124 C93,122 95,119 96,117 C98,113 98,109 97,105 C97,100 96,97 94,93 L86,85 C84,83 81,81 78,81 C73,79 66,79 62,82 Z" id="Shape" fill="#2A2625"></path>
                <path d="M42,110 L42,109 L42,105 L55,105 L56,105 L56,67 C54,67 56,68 50,68 C47,68 45,68 42,68 L42,67 L42,55 L55,55 C57,55 56,55 56,55 L56,44 L32,44 C33,45 33,46 34,46 C34,46 34,46 34,46 C35,47 35,47 35,46 L35,125 C44,125 41,126 42,114 L42,111 C42,110 42,111 42,110 Z" id="Shape" fill="#EAEAEA"></path>
                <path d="M179,4 C169,3 158,3 148,3 L84,3 C79,3 55,3 52,4 L52,13 C54,13 57,13 59,13 L83,13 C90,13 176,13 179,13 L179,4 Z" id="Shape" fill="#2A2625"></path>
                <path d="M229,25.0335907 C229,24.3669241 227.333333,16.3557271 224,1 L181,1 C181,3 181,11 181,25 L229,25.0335907 Z" id="Shape" fill="#2A2625"></path>
                <polygon id="Shape" fill="#2A2625" points="1 15 1 25 50 25 50 1 7 1"></polygon>
                <path d="M51,26 L153,26 L153,19 C85,19 51,19 51,19 C51,19 51,21.3333333 51,26 Z" id="Shape" fill="#FEFEFE"></path>
                <path d="M147,66 C146,69 147,74 146,78 C146,80 146,78 146,79 C145,82 146,81 144,85 C144,85 144,86 144,87 L135,97 C134,98 132,98 131,99 C131,99 131,99 131,99 L138,100 C140,100 147,103 149,104 C150,105 152,106 153,107 C155,109 159,113 160,116 C161,119 160,119 162,121 C163,123 162,123 163,125 L163,127 C165,127 167,124 168,123 C169,122 169,119 169,116 C165,114 166,116 162,112 L160,111 C159,109 156,105 155,104 C154,101 153,96 153,93 C153,90 154,86 155,84 C155,83 155,83 156,82 L158,79 C158,79 158,79 158,79 L164,73 C164,73 164,72 164,72 C165,71 165,72 167,71 C167,70 168,70 169,70 L169,62 C167,62 168,63 165,65 C163,67 163,66 161,67 C158,68 154,68 152,68 L147,66 Z" id="Shape" fill="#2A2625"></path>
                <path d="M133,43 C133,45 132,44 135,46 C136,47 136,48 137,49 L149,60 C149,60 149,60 149,60 L152,61 C154,63 153,63 156,63 C161,63 165,60 167,55 C167,55 167,54 167,53 C168,48 165,43 162,44 C159,44 161,45 158,46 C158,44 158,43 159,42 C160,40 164,41 166,41 C166,41 166,41 166,41 C166,41 166,41 167,41 C167,41 167,41 167,41 L169,42 L169,33 C167,33 159,32 157,33 L151,40 C145,45 137,43 133,43 Z" id="Shape" fill="#2A2625"></path>
                <path d="M188,67 L176,67 C174,67 175,67 175,67 C175,72 174,103 175,105 C176,105 175,105 177,104 L189,105 L189,67 L188,67 Z" id="Shape" fill="#FEFEFE"></path>
                <path d="M126,106 C126,107 125,107 126,108 C128,110 129,111 130,114 C132,118 131,116 132,121 C134,121 136,118 141,121 C145,124 144,127 144,130 L153,130 C157,130 157,131 157,127 C157,125 156,122 156,120 L155,119 C155,118 155,118 155,117 C154,116 151,112 150,111 L145,107 C142,105 133,103 129,105 C128,106 127,105 126,106 Z" id="Shape" fill="#2A2625"></path>
                <path d="M153,17 C154,16 153,16 154,15 L169,15 C172,15 171,16 172,18 L179,18 L179,14 C176,14 169,14 165,14 C160,14 155,14 150,14 L69,14 C67,14 66,14 63,14 C61.6666667,14 58,14 52,14 L52,18 C92.6666667,18 116.666667,18 124,18 C130,18 149,19 153,17 Z" id="Shape" fill="#2A2625"></path>
                <polygon id="Shape" fill="#2A2625" points="194 46 190 46 190 124 194 124"></polygon>
                <path d="M35,106 L35,120 C35,124 35,124 37,124 C41,124 40,121 40,113 L40,46 L35,46 L35,106 Z" id="Shape" fill="#2A2625"></path>
                <path d="M169,114 L169,75 C163.762112,76.9062542 159.762112,81.2395875 157,88 C156,90 155.069499,93.300384 157,100 C158.930501,106.699616 166,113 169,114 Z" id="Shape" fill="#2A2625"></path>
                <path d="M81,78 C81,77 78,74 76,71 L74,66 C72,60 73,56 74,50 C74,49 74,50 74,49 L76,46 C77,44 78,45 78,42 C77,42 76,42 74,43 C71,43 68,45 66,47 C61,52 62,51 62,61 C62,63 64,66 65,68 L67,70 C67,70 68,71 68,71 C68,71 68,71 69,72 L79,78 C80,79 79,78 81,78 Z" id="Shape" fill="#2A2625"></path>
                <path d="M4,27 C4,31.6666667 4,34 4,34 C4,34 50,34 50,34 C50,34 50,31.6666667 50,27 L4,27 Z" id="Shape" fill="#2A2625"></path>
                <path d="M223,43 C223,41 223,38 223,37 L176,37 C176,44 174,43 188,43 L223,43 Z" id="Shape" fill="#2A2625"></path>
                <path d="M119,130 L125,130 C126,128 127,126 127,125 C128,123 128,120 128,118 C128,116 128,116 127,115 C126,113 124,107 121,110 C121,110 121,110 121,110 C120,110 120,110 120,111 C120,111 119,113 119,113 C118,115 117,116 116,118 C116,120 116,123 116,125 C117,128 117,128 119,130 Z" id="Shape" fill="#2A2625"></path>
                <path d="M94,130 L107,130 C107,127 106,126 108,125 C109,123 109,124 110,123 C111,123 112,123 112,121 C113,115 111,119 114,112 C114,110 115,111 115,109 C113,109 113,109 111,110 C107,112 106,113 103,117 C101,119 99,124 96,128 C95,128 95,128 94,130 Z" id="Shape" fill="#2A2625"></path>
                <path d="M62,43 C66,43 65,40 78,40 C80,40 82,40 83,39 C86,36 84,38 89,35 C91,34 91,34 92,33 L77,33 C73,33 66,32 62,33 L62,43 Z" id="Shape" fill="#2A2625"></path>
                <path d="M33,43 C33.6666667,43 41.3333333,43 56,43 L56,36 L33,36 L33,43 Z" id="Shape" fill="#2A2625"></path>
                <path d="M42,67 L55,67 C55,64 55,58 55,55 L42,55 L42,67 Z" id="Shape" fill="#2A2625"></path>
                <path d="M117,33 C118,35 117,33 119,34 L122,36 C123,36 124,37 124,37 C127,38 130,39 133,39 C135,39 137,39 138,39 C140,38 139,38 140,38 C142,37 141,38 144,36 C147,35 149,35 149,33 C148,33 119,32 117,33 Z" id="Shape" fill="#2A2625"></path>
                <path d="M170,25 C171,22 170,23 170,22 C169,17 172,17 162,17 C160,17 157,17 155,17 C154,26 154,20 154,23 C153,26 155,26 157,26 C161,26 168,26 170,25 Z" id="Shape" fill="#2A2625"></path>
                <path d="M176,67 L188,67 L188,56 C186,56 184,56 182,56 C181,56 180,56 179,56 C177,56 177,56 176,56 C175,58 176,64 176,67 Z" id="Shape" fill="#2A2625"></path>
                <path d="M195,136 L199,136 L199,127 L198,126 C194.666667,126 192,126 190,126 L186,127 L186,136 L190,136 L190,133 C190.666667,133 192.333333,133 195,133 L195,136 Z" id="Shape" fill="#494544"></path>
                <path d="M7,43 C7,43 14.3333333,43 29,43 L29,36 L7,36 C7,40.6666667 7,43 7,43 Z" id="Shape" fill="#2A2625"></path>
                <path d="M36,134 L39,134 C39,134 39,134 40,134 L40,136 C42,136 43,136 45,136 L45,127 C43,126 43,127 41,126 C38,126 40,125 36,125 L36,134 Z" id="Shape" fill="#494544"></path>
                <path d="M120,70 C120,73 122,72 123,73 C125,75 126,78 129,75 C129,75 129,75 129,75 C131,74 129,75 129,75 C130,75 130,74 130,74 C130,73 130,73 129,72 C128,71 128,72 128,70 C128,71 129,72 130,72 C134,74 135,69 132,67 C129,66 130,68 128,65 L128,64 C128,66 128,67 128,68 C127,70 128,68 127,70 L127,71 C125,71 124,72 123,72 C120,71 122,71 120,70 Z" id="Shape" fill="#6D6B6A"></path>
                <path d="M42,109 C44,110 52,109 55,109 L55,105 L42,105 L42,109 Z" id="Shape" fill="#2A2625"></path>
                <path d="M119,76 L119,78 C118,77 115,76 114,78 C114,80 115,82 117,83 C118,84 119,83 119,83 C121,81 120,81 121,80 C122,79 120,80 122,80 C122,80 124,79 125,79 C125,77 125,76 124,75 C122,73 122,74 120,74 C122,76 120,75 121,78 C120,79 120,79 120,81 L116,80 C117,79 115,81 117,80 C118,80 118,79 118,79 C118,79 118,79 118,79 C119,78 121,77 119,76 Z" id="Shape" fill="#8B8A88"></path>
                <path d="M30,136 L35,136 C35,133 36,129 35,127 C34,126 32,126 30,127 L30,136 Z" id="Shape" fill="#2A2625"></path>
                <polygon id="Shape" fill="#2A2625" points="176 109 188 109 188 106 176 105"></polygon>
                <path d="M134,128 L136,128 L136,125 C137,125 136,125 137,125 C137,125 138,126 138,126 C138,129 137,128 136,130 C136,130 137,130 139,130 C144,130 138,118 134,123 C133,124 133,126 134,128 Z" id="Shape" fill="#2A2625"></path>
                <path d="M62,77 C64,78 67,77 69,77 C70,77 70,77 70,76 C70,75 70,75 69,74 C64,71 66,70 62,70 L62,77 Z" id="Shape" fill="#2A2625"></path>
            </g>
            <g id="Group" transform="translate(96.000000, 0.000000)">
                <circle id="Oval-2" fill="#2B2A29" cx="19" cy="186" r="19"></circle>
                <circle id="Oval" fill="#FFED00" cx="19" cy="186" r="18"></circle>
                <path d="M5,20 L5,18 C5,7 10,2 19,2 C23,2 27,3 29,6 C32,9 33,13 33,18 L33,20 L29,137 C29,142 28,145 27,147 C26,149 23,150 19,150 C15,150 13,149 11,147 C10,145 9,141 9,137 L5,20 Z" id="Shape" fill="#FFED00" fill-rule="nonzero"></path>
                <path d="M3,20 L3,18 C3,12 5,8 7,5 C10,2 14,0 19,0 C21,0 24,0 26,1 C28,2 29,3 31,5 C32,7 33,8 34,11 C34,13 35,15 35,18 C35,56 32,98 30,137 C30,139 30,141 30,143 C30,145 29,147 28,148 C27,149 26,150 25,151 C23,151 21,151 19,151 C17,151 15,151 14,151 C12,150 11,149 10,148 C9,146 9,145 8,143 C8,141 8,139 8,137 L3,20 Z M5,20 L5,18 C5,7 10,2 19,2 C23,2 27,3 29,6 C32,9 33,13 33,18 L33,20 L29,137 C29,142 28,145 27,147 C26,149 23,150 19,150 C15,150 13,149 11,147 C10,145 9,141 9,137 L5,20 Z" id="Shape" fill="#2B2A29"></path>
            </g>
        </g>
    </g>
</svg>