<svg width="231" height="205" xmlns="http://www.w3.org/2000/svg"><g fill="none" fill-rule="evenodd"><path d="M.156 59L4 61l-1 3v5l3 1v8h27.062l4.988 4.547L42 144c5 1 10 0 14 0v27h119v-27c3 0-3 1 7 1 4 0 4 0 7-1v15l-4 1v11h6v-3h3v3h6v-11l-5-1V80h-6v9c-5-1-9 0-14 0V79h49v-9h4v-9l2.158-2-5.646-25H180c0 2-.333 3.333-1 4 0-3-2-2-6-2H68c-4 0-14-1-17 1 0-2 0-2-1-3H6.36L.157 48.624V59z" fill="#B5B3B2"/><path d="M223 78v-7h-47c-.667 0-1.333-.333-2-1v-5h7v3h46v-7h-46v1h-7v-1H57v109h117v-46-47c3 0 0 1 6 1h43z" fill="#494544"/><path d="M59 65v100c0 5 1 3 12 4h101c1-31 0-67 0-99 0-7 3-6-15-6H65c-2 0-4 0-6 1z" fill="#EAEAEA"/><path d="M128 98v1c2 3 1 1 4 2 3 2 2 7-2 5-1 0-2-1-2-2 0 2 0 1 1 2s1 1 1 2c0 0 0 1-1 1 0 0 2-1 0 0-3 3-4 0-6-2-1-1-3 0-3-3v-2h2v2h2v-5l-2-1c-3-2-8-1-10 2-1 0-1 1-2 2l-2 2c-1 1-1 2-2 2-1 1-1 1-2 3 0 3-1 1-1 7 0 4 2 8 5 10 1 2 1 2 5 5 1 0 5 1 6 1 7 1 13-2 18-7 3-3 2-2 3-4 6-9 4-20 3-20v6c-1 3-3 6-4 8l-4 5-6 4h-1c-3 1-7 2-10 1 0 0 1 0-1-1-2 0 0 1-3-1-4-2-7-5-6-11 0-1 0-2 2-3 0-1 0-1 1-2 2-1 6 0 8 0l1 1c2 0 2-1 4 1 1 1 1 2 1 4-1 0-3 1-3 1-2 0 0-1-1 0s0 1-2 3c0 0-1 1-2 0-2-1-3-3-3-5 1-2 4-1 5 0v-2c-1-2-5-1-6 0s-1 2-1 3c1 1 1 1 1 2l2 5c3 5 10 3 14 1l6-7c1-1 1-1 1-2l1-1c2-4 2-12 0-16l-1-3c-1-3-3-6-5-9l-6-6c-1-1-2-1-3-2l-4-2c-3-2-6-3-9-4h-9c-3 0-5 1-7 2l-3 2c-1 1-2 1-2 3l2 1s1 1 2 1c11 5 11 2 16 2 0 2 0 1-2 2-3 2-4 4-9 2-1 0-2-1-3-1l-5-3h-1c-2-2-3-3-4 0-4 5-5 10-4 16v3c0 2 3 8 5 10 5 6 4 5 8 9 1 1 1 2 2 3l3 4c1 1 1 1 2 4 0 1 1 2 2 4 1 3 0 8 0 11 1 0 1 0 2-1s1-1 3-2l1-1c1-1-1 0 1 0 1-1 2-1 3-2 3 0 8 2 10-1l3-2c-2-2-7-1-9-2l-5-2c-3-1-5-3-8-6l-2-3c0-1-1-4-1-6-1-4 0-8 2-11l1-2c2-3 5-5 8-8v-1l1-1c2-2 2-4 2-7 4 0 3 4 3 8 4 0 7-1 9 2 1 1 2 1 2 2z" fill="#2A2625"/><path d="M62 116v28c7 1 8 1 11-3l1-2c1-2 2-6 0-7-1-1-2-1-4-1v4h-2c-2-3 0-7 6-6 2 0 3 2 4 2 2 3 1 9-3 12l-2 2c-4 2-5 2-10 3v13c3 0 5 0 7 1l2 2c2 1 9 0 11 0s2 0 3-1c1 0 1 0 1-1l4-4c2-2 4-5 5-7 2-4 2-8 1-12 0-5-1-8-3-12l-8-8c-2-2-5-4-8-4-5-2-12-2-16 1z" fill="#2A2625"/><path d="M42 144v-5h14v-38c-2 0 0 1-6 1h-8V89h14V78H32c1 1 1 2 2 2 1 1 1 1 1 0v79c9 0 6 1 7-11v-3-1z" fill="#EAEAEA"/><path d="M179 38c-10-1-21-1-31-1H84c-5 0-29 0-32 1v9h127v-9zM229 59.034c0-.667-1.667-8.678-5-24.034h-43v24l48 .034zM1 49v10h49V35H7z" fill="#2A2625"/><path d="M51 60h102v-7H51v7z" fill="#FEFEFE"/><path d="M147 100c-1 3 0 8-1 12v1c-1 3 0 2-2 6v2l-9 10c-1 1-3 1-4 2l7 1c2 0 9 3 11 4 1 1 3 2 4 3 2 2 6 6 7 9s0 3 2 5c1 2 0 2 1 4v2c2 0 4-3 5-4s1-4 1-7c-4-2-3 0-7-4l-2-1c-1-2-4-6-5-7-1-3-2-8-2-11s1-7 2-9c0-1 0-1 1-2l2-3 6-6v-1c1-1 1 0 3-1 0-1 1-1 2-1v-8c-2 0-1 1-4 3-2 2-2 1-4 2-3 1-7 1-9 1l-5-2zM133 77c0 2-1 1 2 3 1 1 1 2 2 3l12 11 3 1c2 2 1 2 4 2 5 0 9-3 11-8v-2c1-5-2-10-5-9-3 0-1 1-4 2 0-2 0-3 1-4 1-2 5-1 7-1h1l2 1v-9c-2 0-10-1-12 0l-6 7c-6 5-14 3-18 3z" fill="#2A2625"/><path d="M188 101h-13c0 5-1 36 0 38 1 0 0 0 2-1l12 1v-38h-1z" fill="#FEFEFE"/><path d="M126 140c0 1-1 1 0 2 2 2 3 3 4 6 2 4 1 2 2 7 2 0 4-3 9 0 4 3 3 6 3 9h9c4 0 4 1 4-3 0-2-1-5-1-7l-1-1v-2c-1-1-4-5-5-6l-5-4c-3-2-12-4-16-2-1 1-2 0-3 1zM153 51c1-1 0-1 1-2h15c3 0 2 1 3 3h7v-4H52v4h72c6 0 25 1 29-1zM194 80h-4v78h4zM35 140v14c0 4 0 4 2 4 4 0 3-3 3-11V80h-5v60zM169 148v-39c-5.238 1.906-9.238 6.24-12 13-1 2-1.93 5.3 0 12s9 13 12 14zM81 112c0-1-3-4-5-7l-2-5c-2-6-1-10 0-16v-1l2-3c1-2 2-1 2-4-1 0-2 0-4 1-3 0-6 2-8 4-5 5-4 4-4 14 0 2 2 5 3 7l2 2 1 1 1 1 10 6c1 1 0 0 2 0zM4 61v7h46v-7H4zM223 77v-6h-47c0 7-2 6 12 6h35zM119 164h6c1-2 2-4 2-5 1-2 1-5 1-7s0-2-1-3c-1-2-3-8-6-5-1 0-1 0-1 1l-1 2c-1 2-2 3-3 5v7c1 3 1 3 3 5zM94 164h13c0-3-1-4 1-5 1-2 1-1 2-2 1 0 2 0 2-2 1-6-1-2 2-9 0-2 1-1 1-3-2 0-2 0-4 1-4 2-5 3-8 7-2 2-4 7-7 11-1 0-1 0-2 2zM62 77c4 0 3-3 16-3 2 0 4 0 5-1 3-3 1-1 6-4 2-1 2-1 3-2H77c-4 0-11-1-15 0v10zM33 77h23v-7H33v7zM42 101h13V89H42v12zM117 67c1 2 0 0 2 1l3 2c1 0 2 1 2 1 3 1 6 2 9 2h5c2-1 1-1 2-1 2-1 1 0 4-2 3-1 5-1 5-3-1 0-30-1-32 0z" fill="#2A2625"/><path d="M170 59c1-3 0-2 0-3-1-5 2-5-8-5h-7c-1 9-1 3-1 6-1 3 1 3 3 3 4 0 11 0 13-1zM176 101h12V90h-12c-1 2 0 8 0 11z" fill="#2A2625"/><path d="M195 170h4v-9l-1-1h-8l-4 1v9h4v-3h5v3z" fill="#494544"/><path d="M7 77h22v-7H7v7z" fill="#2A2625"/><path d="M36 168h4v2h5v-9c-2-1-2 0-4-1-3 0-1-1-5-1v9z" fill="#494544"/><path d="M120 104c0 3 2 2 3 3 2 2 3 5 6 2 2-1 0 0 0 0 1 0 1-1 1-1 0-1 0-1-1-2s-1 0-1-2c0 1 1 2 2 2 4 2 5-3 2-5-3-1-2 1-4-2v-1 4l-1 2v1c-2 0-3 1-4 1-3-1-1-1-3-2z" fill="#6D6B6A"/><path d="M42 143c2 1 10 0 13 0v-4H42v4z" fill="#2A2625"/><path d="M119 110v2c-1-1-4-2-5 0 0 2 1 4 3 5 1 1 2 0 2 0 2-2 1-2 2-3s-1 0 1 0c0 0 2-1 3-1 0-2 0-3-1-4-2-2-2-1-4-1 2 2 0 1 1 4-1 1-1 1-1 3l-4-1c1-1-1 1 1 0 1 0 1-1 1-1 1-1 3-2 1-3z" fill="#8B8A88"/><path d="M30 170h5c0-3 1-7 0-9-1-1-3-1-5 0v9zM176 143h12v-3l-12-1zM134 162h2v-3h1l1 1c0 3-1 2-2 4h3c5 0-1-12-5-7-1 1-1 3 0 5zM62 111c2 1 5 0 7 0 1 0 1 0 1-1s0-1-1-2c-5-3-3-4-7-4v7z" fill="#2A2625"/><g transform="translate(96)"><circle fill="#2B2A29" cx="19" cy="186" r="19"/><circle fill="#FFED00" cx="19" cy="186" r="18"/><path d="M5 20v-2C5 7 10 2 19 2c4 0 8 1 10 4 3 3 4 7 4 12v2l-4 117c0 5-1 8-2 10s-4 3-8 3-6-1-8-3c-1-2-2-6-2-10L5 20z" fill="#FFED00" fill-rule="nonzero"/><path d="M3 20v-2C3 12 5 8 7 5c3-3 7-5 12-5 2 0 5 0 7 1s3 2 5 4c1 2 2 3 3 6 0 2 1 4 1 7 0 38-3 80-5 119v6c0 2-1 4-2 5l-3 3H14c-2-1-3-2-4-3-1-2-1-3-2-5v-6L3 20zm2 0v-2C5 7 10 2 19 2c4 0 8 1 10 4 3 3 4 7 4 12v2l-4 117c0 5-1 8-2 10s-4 3-8 3-6-1-8-3c-1-2-2-6-2-10L5 20z" fill="#2B2A29"/></g></g></svg>