<?xml version="1.0" encoding="UTF-8"?>
<svg width="231px" height="137px" viewBox="0 0 231 137" version="1.1" xmlns="http://www.w3.org/2000/svg" xmlns:xlink="http://www.w3.org/1999/xlink">
    <!-- Generator: Sketch 52.4 (67378) - http://www.bohemiancoding.com/sketch -->
    <title>plotter</title>
    <desc>Created with Sketch.</desc>
    <g id="Page-1" stroke="none" stroke-width="1" fill="none" fill-rule="evenodd">
        <g id="plotter">
            <path d="M0.156,25 L4,27 L3,30 L3,35 L6,36 L6,44 L33.062,44 L38.05,48.547 L42,110 C47,111 52,110 56,110 L56,137 L175,137 L175,110 C178,110 172,111 182,111 C186,111 186,111 189,110 L189,125 L185,126 L185,137 L191,137 L191,134 L194,134 L194,137 L200,137 L200,126 L195,125 L195,46 L189,46 L189,55 C184,54 180,55 175,55 L175,45 L224,45 L224,36 L228,36 L228,27 L230.158,25 L224.512,0 L180,0 C180,2 179.667,3.333 179,4 C179,1 177,2 173,2 L68,2 C64,2 54,1 51,3 C51,1 51,1 50,0 L6.36,0 L0.157,14.624 L0.157,25 L0.156,25 Z" id="Path" fill="#B5B3B2"></path>
            <path d="M223,44 L223,37 L176,37 C175.333,37 174.667,36.667 174,36 L174,31 L181,31 L181,34 L227,34 L227,27 L181,27 L181,28 L174,28 L174,27 L57,27 L57,136 L174,136 L174,90 L174,43 C177,43 174,44 180,44 L223,44 Z" id="Path" fill="#494544"></path>
            <path d="M59,31 L59,131 C59,136 60,134 71,135 L172,135 C173,104 172,68 172,36 C172,29 175,30 157,30 L65,30 C63,30 61,30 59,31 Z" id="Path" fill="#EAEAEA"></path>
            <path d="M128,64 L128,65 C130,68 129,66 132,67 C135,69 134,74 130,72 C129,72 128,71 128,70 C128,72 128,71 129,72 C130,73 130,73 130,74 C130,74 130,75 129,75 C129,75 131,74 129,75 C126,78 125,75 123,73 C122,72 120,73 120,70 L120,68 L122,68 L122,70 L124,70 L124,65 L122,64 C119,62 114,63 112,66 C111,66 111,67 110,68 L108,70 C107,71 107,72 106,72 C105,73 105,73 104,75 C104,78 103,76 103,82 C103,86 105,90 108,92 C109,94 109,94 113,97 C114,97 118,98 119,98 C126,99 132,96 137,91 C140,88 139,89 140,87 C146,78 144,67 143,67 L143,73 C142,76 140,79 139,81 L135,86 L129,90 L128,90 C125,91 121,92 118,91 C118,91 119,91 117,90 C115,90 117,91 114,89 C110,87 107,84 108,78 C108,77 108,76 110,75 C110,74 110,74 111,73 C113,72 117,73 119,73 L120,74 C122,74 122,73 124,75 C125,76 125,77 125,79 C124,79 122,80 122,80 C120,80 122,79 121,80 C120,81 121,81 119,83 C119,83 118,84 117,83 C115,82 114,80 114,78 C115,76 118,77 119,78 L119,76 C118,74 114,75 113,76 C112,77 112,78 112,79 C113,80 113,80 113,81 L115,86 C118,91 125,89 129,87 L135,80 C136,79 136,79 136,78 L137,77 C139,73 139,65 137,61 L136,58 C135,55 133,52 131,49 L125,43 C124,42 123,42 122,41 L118,39 C115,37 112,36 109,35 L100,35 C97,35 95,36 93,37 L90,39 C89,40 88,40 88,42 L90,43 C90,43 91,44 92,44 C103,49 103,46 108,46 C108,48 108,47 106,48 C103,50 102,52 97,50 C96,50 95,49 94,49 L89,46 L88,46 C86,44 85,43 84,46 C80,51 79,56 80,62 L80,65 C80,67 83,73 85,75 C90,81 89,80 93,84 C94,85 94,86 95,87 L98,91 C99,92 99,92 100,95 C100,96 101,97 102,99 C103,102 102,107 102,110 C103,110 103,110 104,109 C105,108 105,108 107,107 L108,106 C109,105 107,106 109,106 C110,105 111,105 112,104 C115,104 120,106 122,103 L125,101 C123,99 118,100 116,99 L111,97 C108,96 106,94 103,91 L101,88 C101,87 100,84 100,82 C99,78 100,74 102,71 L103,69 C105,66 108,64 111,61 L111,60 L112,59 C114,57 114,55 114,52 C118,52 117,56 117,60 C121,60 124,59 126,62 C127,63 128,63 128,64 Z" id="Path" fill="#2A2625"></path>
            <path d="M62,82 L62,110 C69,111 70,111 73,107 L74,105 C75,103 76,99 74,98 C73,97 72,97 70,97 L70,101 L68,101 C66,98 68,94 74,95 C76,95 77,97 78,97 C80,100 79,106 75,109 L73,111 C69,113 68,113 63,114 L63,127 C66,127 68,127 70,128 L72,130 C74,131 81,130 83,130 C85,130 85,130 86,129 C87,129 87,129 87,128 L91,124 C93,122 95,119 96,117 C98,113 98,109 97,105 C97,100 96,97 94,93 L86,85 C84,83 81,81 78,81 C73,79 66,79 62,82 Z" id="Path" fill="#2A2625"></path>
            <path d="M42,110 L42,105 L56,105 L56,67 C54,67 56,68 50,68 L42,68 L42,55 L56,55 L56,44 L32,44 C33,45 33,46 34,46 C35,47 35,47 35,46 L35,125 C44,125 41,126 42,114 L42,111 L42,110 Z" id="Path" fill="#EAEAEA"></path>
            <path d="M179,4 C169,3 158,3 148,3 L84,3 C79,3 55,3 52,4 L52,13 L179,13 L179,4 Z M229,25.034 C229,24.367 227.333,16.356 224,1 L181,1 L181,25 L229,25.034 Z M1,15 L1,25 L50,25 L50,1 L7,1 L1,15 Z" id="Shape" fill="#2A2625" fill-rule="nonzero"></path>
            <polygon id="Path" fill="#FEFEFE" points="51 26 153 26 153 19 51 19"></polygon>
            <path d="M147,66 C146,69 147,74 146,78 L146,79 C145,82 146,81 144,85 L144,87 L135,97 C134,98 132,98 131,99 L138,100 C140,100 147,103 149,104 C150,105 152,106 153,107 C155,109 159,113 160,116 C161,119 160,119 162,121 C163,123 162,123 163,125 L163,127 C165,127 167,124 168,123 C169,122 169,119 169,116 C165,114 166,116 162,112 L160,111 C159,109 156,105 155,104 C154,101 153,96 153,93 C153,90 154,86 155,84 C155,83 155,83 156,82 L158,79 L164,73 L164,72 C165,71 165,72 167,71 C167,70 168,70 169,70 L169,62 C167,62 168,63 165,65 C163,67 163,66 161,67 C158,68 154,68 152,68 L147,66 Z M133,43 C133,45 132,44 135,46 C136,47 136,48 137,49 L149,60 L152,61 C154,63 153,63 156,63 C161,63 165,60 167,55 L167,53 C168,48 165,43 162,44 C159,44 161,45 158,46 C158,44 158,43 159,42 C160,40 164,41 166,41 L167,41 L169,42 L169,33 C167,33 159,32 157,33 L151,40 C145,45 137,43 133,43 Z" id="Shape" fill="#2A2625" fill-rule="nonzero"></path>
            <path d="M188,67 L175,67 C175,72 174,103 175,105 C176,105 175,105 177,104 L189,105 L189,67 L188,67 Z" id="Path" fill="#FEFEFE"></path>
            <path d="M126,106 C126,107 125,107 126,108 C128,110 129,111 130,114 C132,118 131,116 132,121 C134,121 136,118 141,121 C145,124 144,127 144,130 L153,130 C157,130 157,131 157,127 C157,125 156,122 156,120 L155,119 L155,117 C154,116 151,112 150,111 L145,107 C142,105 133,103 129,105 C128,106 127,105 126,106 Z M153,17 C154,16 153,16 154,15 L169,15 C172,15 171,16 172,18 L179,18 L179,14 L52,14 L52,18 L124,18 C130,18 149,19 153,17 Z M194,46 L190,46 L190,124 L194,124 L194,46 Z M35,106 L35,120 C35,124 35,124 37,124 C41,124 40,121 40,113 L40,46 L35,46 L35,106 Z M169,114 L169,75 C163.762,76.906 159.762,81.24 157,88 C156,90 155.07,93.3 157,100 C158.93,106.7 166,113 169,114 Z M81,78 C81,77 78,74 76,71 L74,66 C72,60 73,56 74,50 L74,49 L76,46 C77,44 78,45 78,42 C77,42 76,42 74,43 C71,43 68,45 66,47 C61,52 62,51 62,61 C62,63 64,66 65,68 L67,70 L68,71 L69,72 L79,78 C80,79 79,78 81,78 Z M4,27 L4,34 L50,34 L50,27 L4,27 Z M223,43 L223,37 L176,37 C176,44 174,43 188,43 L223,43 Z M119,130 L125,130 C126,128 127,126 127,125 C128,123 128,120 128,118 C128,116 128,116 127,115 C126,113 124,107 121,110 C120,110 120,110 120,111 L119,113 C118,115 117,116 116,118 L116,125 C117,128 117,128 119,130 Z M94,130 L107,130 C107,127 106,126 108,125 C109,123 109,124 110,123 C111,123 112,123 112,121 C113,115 111,119 114,112 C114,110 115,111 115,109 C113,109 113,109 111,110 C107,112 106,113 103,117 C101,119 99,124 96,128 C95,128 95,128 94,130 Z M62,43 C66,43 65,40 78,40 C80,40 82,40 83,39 C86,36 84,38 89,35 C91,34 91,34 92,33 L77,33 C73,33 66,32 62,33 L62,43 Z M33,43 L56,43 L56,36 L33,36 L33,43 Z M42,67 L55,67 L55,55 L42,55 L42,67 Z M117,33 C118,35 117,33 119,34 L122,36 C123,36 124,37 124,37 C127,38 130,39 133,39 L138,39 C140,38 139,38 140,38 C142,37 141,38 144,36 C147,35 149,35 149,33 C148,33 119,32 117,33 Z" id="Shape" fill="#2A2625" fill-rule="nonzero"></path>
            <path d="M170,25 C171,22 170,23 170,22 C169,17 172,17 162,17 L155,17 C154,26 154,20 154,23 C153,26 155,26 157,26 C161,26 168,26 170,25 Z M176,67 L188,67 L188,56 L176,56 C175,58 176,64 176,67 Z" id="Shape" fill="#2A2625" fill-rule="nonzero"></path>
            <polygon id="Path" fill="#494544" points="195 136 199 136 199 127 198 126 190 126 186 127 186 136 190 136 190 133 195 133"></polygon>
            <polygon id="Path" fill="#2A2625" points="7 43 29 43 29 36 7 36"></polygon>
            <path d="M36,134 L40,134 L40,136 L45,136 L45,127 C43,126 43,127 41,126 C38,126 40,125 36,125 L36,134 Z" id="Path" fill="#494544"></path>
            <path d="M42,109 C44,110 52,109 55,109 L55,105 L42,105 L42,109 Z" id="Path" fill="#2A2625"></path>
            <path d="M30,136 L35,136 C35,133 36,129 35,127 C34,126 32,126 30,127 L30,136 Z M176,109 L188,109 L188,106 L176,105 L176,109 Z M134,128 L136,128 L136,125 L137,125 L138,126 C138,129 137,128 136,130 L139,130 C144,130 138,118 134,123 C133,124 133,126 134,128 Z M62,77 C64,78 67,77 69,77 C70,77 70,77 70,76 C70,75 70,75 69,74 C64,71 66,70 62,70 L62,77 Z" id="Shape" fill="#2A2625" fill-rule="nonzero"></path>
        </g>
    </g>
</svg>